<mxfile host="app.diagrams.net" modified="2023-04-28T15:47:23.346Z" agent="Mozilla/5.0 (X11; Linux x86_64) AppleWebKit/537.36 (KHTML, like Gecko) Chrome/110.0.0.0 Safari/537.36" etag="nWN-fGPj0kkMFyv0u04V" version="21.2.3" type="device">
  <diagram name="Strona-1" id="DtwsP124TrIl4JC9wT8I">
    <mxGraphModel dx="1391" dy="802" grid="1" gridSize="10" guides="1" tooltips="1" connect="1" arrows="1" fold="1" page="1" pageScale="1" pageWidth="827" pageHeight="1169" math="0" shadow="0">
      <root>
        <mxCell id="0" />
        <mxCell id="1" parent="0" />
        <mxCell id="2vhyvC70G3c1zEfVAugz-5" style="rounded=0;orthogonalLoop=1;jettySize=auto;html=1;endArrow=none;endFill=0;startArrow=block;startFill=0;" edge="1" parent="1" source="2vhyvC70G3c1zEfVAugz-1" target="2vhyvC70G3c1zEfVAugz-2">
          <mxGeometry relative="1" as="geometry" />
        </mxCell>
        <mxCell id="2vhyvC70G3c1zEfVAugz-6" style="rounded=0;orthogonalLoop=1;jettySize=auto;html=1;endArrow=none;endFill=0;startArrow=block;startFill=0;" edge="1" parent="1" source="2vhyvC70G3c1zEfVAugz-1" target="2vhyvC70G3c1zEfVAugz-3">
          <mxGeometry relative="1" as="geometry" />
        </mxCell>
        <mxCell id="2vhyvC70G3c1zEfVAugz-1" value="&lt;font style=&quot;font-size: 20px;&quot;&gt;Throwable&lt;/font&gt;" style="rounded=0;whiteSpace=wrap;html=1;fillColor=#dae8fc;strokeColor=#6c8ebf;" vertex="1" parent="1">
          <mxGeometry x="250" y="240" width="140" height="60" as="geometry" />
        </mxCell>
        <mxCell id="2vhyvC70G3c1zEfVAugz-2" value="&lt;font style=&quot;font-size: 20px;&quot;&gt;Error&lt;/font&gt;" style="rounded=0;whiteSpace=wrap;html=1;fillColor=#dae8fc;strokeColor=#6c8ebf;" vertex="1" parent="1">
          <mxGeometry x="140" y="340" width="140" height="60" as="geometry" />
        </mxCell>
        <mxCell id="2vhyvC70G3c1zEfVAugz-7" style="rounded=0;orthogonalLoop=1;jettySize=auto;html=1;endArrow=none;endFill=0;startArrow=block;startFill=0;" edge="1" parent="1" source="2vhyvC70G3c1zEfVAugz-3" target="2vhyvC70G3c1zEfVAugz-4">
          <mxGeometry relative="1" as="geometry" />
        </mxCell>
        <mxCell id="2vhyvC70G3c1zEfVAugz-3" value="&lt;font style=&quot;font-size: 20px;&quot;&gt;Exception&lt;/font&gt;" style="rounded=0;whiteSpace=wrap;html=1;fillColor=#dae8fc;strokeColor=#6c8ebf;" vertex="1" parent="1">
          <mxGeometry x="360" y="340" width="140" height="60" as="geometry" />
        </mxCell>
        <mxCell id="2vhyvC70G3c1zEfVAugz-4" value="&lt;font style=&quot;font-size: 20px;&quot;&gt;RuntimeException&lt;/font&gt;" style="rounded=0;whiteSpace=wrap;html=1;fillColor=#dae8fc;strokeColor=#6c8ebf;" vertex="1" parent="1">
          <mxGeometry x="500" y="440" width="190" height="60" as="geometry" />
        </mxCell>
        <mxCell id="2vhyvC70G3c1zEfVAugz-8" value="Unchecked" style="rounded=0;whiteSpace=wrap;html=1;fillColor=#fff2cc;strokeColor=#d6b656;" vertex="1" parent="1">
          <mxGeometry x="610" y="430" width="80" height="20" as="geometry" />
        </mxCell>
        <mxCell id="2vhyvC70G3c1zEfVAugz-9" value="Unchecked" style="rounded=0;whiteSpace=wrap;html=1;fillColor=#fff2cc;strokeColor=#d6b656;" vertex="1" parent="1">
          <mxGeometry x="200" y="330" width="80" height="20" as="geometry" />
        </mxCell>
        <mxCell id="2vhyvC70G3c1zEfVAugz-10" value="Unchecked" style="rounded=0;whiteSpace=wrap;html=1;fillColor=#fff2cc;strokeColor=#d6b656;" vertex="1" parent="1">
          <mxGeometry x="310" y="230" width="80" height="20" as="geometry" />
        </mxCell>
        <mxCell id="2vhyvC70G3c1zEfVAugz-11" value="Checked" style="rounded=0;whiteSpace=wrap;html=1;fillColor=#fff2cc;strokeColor=#d6b656;" vertex="1" parent="1">
          <mxGeometry x="420" y="330" width="80" height="20" as="geometry" />
        </mxCell>
        <mxCell id="2vhyvC70G3c1zEfVAugz-17" style="rounded=0;orthogonalLoop=1;jettySize=auto;html=1;entryX=0.75;entryY=1;entryDx=0;entryDy=0;endArrow=block;endFill=0;" edge="1" parent="1" source="2vhyvC70G3c1zEfVAugz-12" target="2vhyvC70G3c1zEfVAugz-4">
          <mxGeometry relative="1" as="geometry" />
        </mxCell>
        <mxCell id="2vhyvC70G3c1zEfVAugz-12" value="NullPointerException" style="rounded=0;whiteSpace=wrap;html=1;fontSize=16;fillColor=#eeeeee;strokeColor=#36393d;" vertex="1" parent="1">
          <mxGeometry x="540" y="520" width="200" height="40" as="geometry" />
        </mxCell>
        <mxCell id="2vhyvC70G3c1zEfVAugz-18" style="edgeStyle=orthogonalEdgeStyle;rounded=0;orthogonalLoop=1;jettySize=auto;html=1;endArrow=block;endFill=0;" edge="1" parent="1" source="2vhyvC70G3c1zEfVAugz-14" target="2vhyvC70G3c1zEfVAugz-4">
          <mxGeometry relative="1" as="geometry">
            <Array as="points">
              <mxPoint x="510" y="600" />
            </Array>
          </mxGeometry>
        </mxCell>
        <mxCell id="2vhyvC70G3c1zEfVAugz-14" value="NumberFormatException" style="rounded=0;whiteSpace=wrap;html=1;fontSize=16;fillColor=#eeeeee;strokeColor=#36393d;" vertex="1" parent="1">
          <mxGeometry x="540" y="580" width="200" height="40" as="geometry" />
        </mxCell>
        <mxCell id="2vhyvC70G3c1zEfVAugz-20" style="edgeStyle=orthogonalEdgeStyle;rounded=0;orthogonalLoop=1;jettySize=auto;html=1;endArrow=block;endFill=0;" edge="1" parent="1" source="2vhyvC70G3c1zEfVAugz-15" target="2vhyvC70G3c1zEfVAugz-2">
          <mxGeometry relative="1" as="geometry">
            <Array as="points">
              <mxPoint x="170" y="430" />
              <mxPoint x="170" y="430" />
            </Array>
          </mxGeometry>
        </mxCell>
        <mxCell id="2vhyvC70G3c1zEfVAugz-15" value="ClassDeffNotFoundError" style="rounded=0;whiteSpace=wrap;html=1;fontSize=16;fillColor=#eeeeee;strokeColor=#36393d;" vertex="1" parent="1">
          <mxGeometry x="50" y="440" width="200" height="40" as="geometry" />
        </mxCell>
        <mxCell id="2vhyvC70G3c1zEfVAugz-21" style="edgeStyle=orthogonalEdgeStyle;rounded=0;orthogonalLoop=1;jettySize=auto;html=1;endArrow=block;endFill=0;" edge="1" parent="1" source="2vhyvC70G3c1zEfVAugz-16" target="2vhyvC70G3c1zEfVAugz-2">
          <mxGeometry relative="1" as="geometry">
            <Array as="points">
              <mxPoint x="260" y="520" />
            </Array>
          </mxGeometry>
        </mxCell>
        <mxCell id="2vhyvC70G3c1zEfVAugz-16" value="StackOverflowError" style="rounded=0;whiteSpace=wrap;html=1;fontSize=16;fillColor=#eeeeee;strokeColor=#36393d;" vertex="1" parent="1">
          <mxGeometry x="50" y="500" width="200" height="40" as="geometry" />
        </mxCell>
        <mxCell id="2vhyvC70G3c1zEfVAugz-24" style="edgeStyle=orthogonalEdgeStyle;rounded=0;orthogonalLoop=1;jettySize=auto;html=1;endArrow=block;endFill=0;" edge="1" parent="1" source="2vhyvC70G3c1zEfVAugz-22" target="2vhyvC70G3c1zEfVAugz-3">
          <mxGeometry relative="1" as="geometry">
            <Array as="points">
              <mxPoint x="400" y="430" />
              <mxPoint x="400" y="430" />
            </Array>
          </mxGeometry>
        </mxCell>
        <mxCell id="2vhyvC70G3c1zEfVAugz-22" value="IOException" style="rounded=0;whiteSpace=wrap;html=1;fontSize=16;fillColor=#eeeeee;strokeColor=#36393d;" vertex="1" parent="1">
          <mxGeometry x="290" y="440" width="170" height="40" as="geometry" />
        </mxCell>
        <mxCell id="2vhyvC70G3c1zEfVAugz-25" style="edgeStyle=orthogonalEdgeStyle;rounded=0;orthogonalLoop=1;jettySize=auto;html=1;endArrow=block;endFill=0;" edge="1" parent="1" source="2vhyvC70G3c1zEfVAugz-23" target="2vhyvC70G3c1zEfVAugz-3">
          <mxGeometry relative="1" as="geometry">
            <Array as="points">
              <mxPoint x="470" y="520" />
            </Array>
          </mxGeometry>
        </mxCell>
        <mxCell id="2vhyvC70G3c1zEfVAugz-23" value="SQLException" style="rounded=0;whiteSpace=wrap;html=1;fontSize=16;fillColor=#eeeeee;strokeColor=#36393d;" vertex="1" parent="1">
          <mxGeometry x="290" y="500" width="170" height="40" as="geometry" />
        </mxCell>
      </root>
    </mxGraphModel>
  </diagram>
</mxfile>
